PathFileType	4	(X/Y/Z)	./resultDataOpenSim/trcMotMarkerGrf/sub10/qtm-14-06.trc
DataRate	CameraRate	NumFrames	NumMarkers	Units	OrigDataRate	OrigDataStartFrame	OrigNumFrames
250.000000	250.000000	11	24	m	250.000000	428	488
Frame#	Time	L.Toe.Tip			R.Toe.Tip			L.Ankle.Lat			R.Ankle.Lat			L.Ankle.Med			R.Ankle.Med			L.Heel			R.Heel			L.Knee.Lat			R.Knee.Lat			L.Knee.Med			R.Knee.Med			L.Thigh.Upper			R.Thigh.Upper			L.ASIS			R.ASIS			V.Sacral			L.Acromium			R.Acromium			C7			L.Elbow			R.Elbow			L.Wrist.Lat			R.Wrist.Lat
		X1	Y1	Z1	X2	Y2	Z2	X3	Y3	Z3	X4	Y4	Z4	X5	Y5	Z5	X6	Y6	Z6	X7	Y7	Z7	X8	Y8	Z8	X9	Y9	Z9	X10	Y10	Z10	X11	Y11	Z11	X12	Y12	Z12	X13	Y13	Z13	X14	Y14	Z14	X15	Y15	Z15	X16	Y16	Z16	X17	Y17	Z17	X18	Y18	Z18	X19	Y19	Z19	X20	Y20	Z20	X21	Y21	Z21	X22	Y22	Z22	X23	Y23	Z23	X24	Y24	Z24

428	1.708	1.6988603	0.055912915	-0.10363295	0.95934251	0.038033006	-0.055673321	1.5737504	0.094365024	-0.16750899	0.84564924	0.11752469	-0.010628876	1.5758496	0.12453858	-0.087143879	0.88218513	0.13693296	-0.088770755	1.5090008	0.072554427	-0.12538085	0.79439333	0.12529935	-0.058252358	1.4545221	0.46322196	-0.19921351	1.0797661	0.44557023	0.047180652	1.463585	0.44681523	-0.078620082	1.1174929	0.44043913	-0.073623658	1.3276764	0.83023621	-0.25369908	1.1857114	0.83692048	0.10878681	1.3521126	0.93392867	-0.16510282	1.2853956	0.9264577	0.072421505	1.126554	0.94084072	-0.11380218	1.2755798	1.4054451	-0.20360264	1.2434428	1.4023762	0.10904559	1.1867163	1.4314735	-0.058947287	1.0877422	1.126122	-0.28304052	1.1993716	1.0451186	0.17751976	1.1399259	0.90141732	-0.36587098	1.4282344	0.94443774	0.20336552
429	1.712	1.7000477	0.052592761	-0.10064758	0.95971083	0.038031071	-0.055644295	1.5755469	0.091988397	-0.16569795	0.8475419	0.11929153	-0.010060366	1.5760389	0.12214416	-0.084930474	0.88451548	0.13813653	-0.088097487	1.5101647	0.0708162	-0.12424251	0.79658376	0.12783141	-0.057772568	1.4615214	0.46271702	-0.19806457	1.0851037	0.44485658	0.047611944	1.4711685	0.4466119	-0.07751918	1.1230003	0.43931347	-0.073062032	1.3333612	0.829642	-0.25354329	1.1916285	0.83593718	0.10890397	1.3582983	0.93286697	-0.16486369	1.2915316	0.92531907	0.072526524	1.1318656	0.94037331	-0.11161311	1.2810378	1.4043225	-0.20418484	1.2491441	1.4014557	0.10856146	1.1922182	1.4303488	-0.059478779	1.0938835	1.1245601	-0.28325231	1.2055814	1.0439246	0.17623205	1.1455894	0.8998809	-0.36639846	1.4348663	0.9438568	0.20110252
430	1.716	1.7015113	0.050311216	-0.098145851	0.96009028	0.038019293	-0.055619919	1.576769	0.08946996	-0.16376829	0.84953645	0.12111738	-0.0094925874	1.5753945	0.11957369	-0.082662738	0.88699894	0.13935705	-0.087392834	1.5109462	0.068402044	-0.12333204	0.79892322	0.13044389	-0.057318531	1.4684785	0.46213065	-0.19697263	1.0905765	0.4441236	0.048063585	1.4786532	0.44633529	-0.076447805	1.128607	0.43817117	-0.072459205	1.3390448	0.82903991	-0.25340199	1.1971339	0.8350994	0.10902178	1.3645411	0.93189649	-0.16464355	1.2977809	0.92417803	0.072609576	1.1374028	0.9397436	-0.10995295	1.2865248	1.4032064	-0.20478759	1.2549002	1.4005156	0.10804467	1.1977235	1.429227	-0.060031988	1.1000684	1.1229792	-0.28346623	1.2117598	1.0427448	0.17490776	1.1513497	0.89834294	-0.36696219	1.4414365	0.94325022	0.1988808
431	1.72	1.7032521	0.04887208	-0.096666327	0.96049359	0.037989475	-0.055569605	1.5773563	0.086901328	-0.16183082	0.85162352	0.12297787	-0.0089240441	1.5751273	0.11677104	-0.080694727	0.88963946	0.14059352	-0.086652759	1.5114284	0.065219339	-0.12253325	0.80139903	0.13314421	-0.056874164	1.4753932	0.46146959	-0.19591856	1.0961705	0.44335932	0.048534668	1.4860254	0.44598033	-0.075383086	1.1343359	0.4369974	-0.071811416	1.3447513	0.82841158	-0.25327335	1.2023039	0.83438535	0.10914047	1.3708261	0.93102084	-0.16443862	1.3041293	0.92303163	0.072677449	1.1434052	0.93889135	-0.10933753	1.2920318	1.4021011	-0.20541306	1.2607128	1.399572	0.10749788	1.2032258	1.428109	-0.060599469	1.106294	1.1213749	-0.28367611	1.2179104	1.0415777	0.17355404	1.1572109	0.89679788	-0.36755765	1.4479452	0.94260996	0.1966942
432	1.724	1.7049859	0.047780976	-0.096265409	0.96093276	0.037945739	-0.055480696	1.577324	0.084414216	-0.15999383	0.85381035	0.12486083	-0.0083448249	1.5758192	0.11384249	-0.079128692	0.89243805	0.14183861	-0.085868991	1.5116143	0.061554186	-0.12153209	0.80400612	0.1359453	-0.056409127	1.4822627	0.46075299	-0.19485759	1.1018639	0.44255894	0.049025142	1.4932474	0.44554396	-0.074305935	1.1402205	0.43577851	-0.071119163	1.3505027	0.82774509	-0.25315791	1.2073314	0.83375524	0.10926089	1.3771409	0.93024067	-0.16425501	1.3105595	0.92187926	0.072733697	1.1497566	0.93794269	-0.1094474	1.2975491	1.4010112	-0.20606534	1.266557	1.3986364	0.10691936	1.2087285	1.4269959	-0.061177038	1.1125542	1.1197478	-0.28388708	1.2240333	1.0404259	0.17216823	1.163182	0.89524046	-0.36818129	1.4543929	0.94192677	0.19454621
433	1.728	1.7064198	0.046669541	-0.096452882	0.96140926	0.037899013	-0.055360086	1.5768103	0.082097322	-0.15830107	0.85611912	0.12676963	-0.007742864	1.5768956	0.11104801	-0.077720355	0.89539685	0.14308358	-0.085029064	1.5114544	0.057943576	-0.12010487	0.80678077	0.13884179	-0.055915754	1.4890791	0.46000533	-0.19375293	1.1076616	0.44172553	0.049534886	1.5002788	0.44503788	-0.073215299	1.1462858	0.4345065	-0.070384084	1.3563182	0.82703215	-0.25304831	1.2123455	0.83318222	0.10938696	1.3834744	0.92955376	-0.16410668	1.3170545	0.9207203	0.072769723	1.1561788	0.93700798	-0.1096692	1.3030742	1.3999385	-0.20674978	1.2723919	1.3977173	0.10631258	1.2142371	1.4258891	-0.061771785	1.1188431	1.1180971	-0.28410818	1.230134	1.0392886	0.17074633	1.1692728	0.89367338	-0.36882113	1.4607802	0.94119446	0.19244597
434	1.732	1.7074706	0.04550807	-0.096589797	0.96191898	0.037856502	-0.055220457	1.5760635	0.079966689	-0.15673047	0.8585764	0.1287181	-0.0071100431	1.577576	0.10862635	-0.076239532	0.89852578	0.14432424	-0.084122255	1.5109832	0.054827445	-0.11838389	0.80979521	0.14180956	-0.055418629	1.4958358	0.45925661	-0.19259667	1.1135921	0.44086251	0.050064574	1.5071037	0.44448327	-0.072122015	1.1525433	0.43317537	-0.069608049	1.3622108	0.82626854	-0.25292504	1.2173854	0.83265732	0.10952142	1.3898015	0.9289561	-0.1640038	1.3235916	0.91955507	0.07276773	1.1624619	0.93607878	-0.10961415	1.3086033	1.3988754	-0.20746895	1.2782043	1.3968193	0.10568944	1.2197528	1.4247903	-0.062389243	1.12516	1.1164182	-0.28434285	1.236253	1.0381486	0.1693097	1.1754885	0.89210439	-0.36946032	1.4671032	0.94041206	0.1903937
435	1.736	1.7081962	0.044447379	-0.096277058	0.96246657	0.037819565	-0.055079403	1.575345	0.078019362	-0.15524005	0.86121293	0.130731	-0.0064421333	1.5776395	0.1066343	-0.074683554	0.90185019	0.14555906	-0.083146166	1.5103729	0.052292632	-0.11676123	0.81310784	0.14483285	-0.054939011	1.5025365	0.45853695	-0.1913981	1.1196713	0.43997222	0.050614557	1.5137157	0.44389337	-0.07103383	1.1590013	0.431776	-0.068787573	1.3681861	0.82546032	-0.25276925	1.2224452	0.83218067	0.10966501	1.3960767	0.9284467	-0.16394882	1.3301564	0.91838513	0.072708077	1.168557	0.93513047	-0.10920753	1.3141253	1.3978091	-0.20821719	1.2840313	1.3959418	0.10506476	1.2252708	1.4237027	-0.063026791	1.1315083	1.1147126	-0.284592	1.2424775	1.0369682	0.16791478	1.181826	0.89053706	-0.37009144	1.4733568	0.9395835	0.18837809
436	1.74	1.7086772	0.043572272	-0.095508474	0.96306755	0.037789915	-0.054961392	1.5748328	0.076284138	-0.15382734	0.86405098	0.13282995	-0.0057410579	1.5772792	0.10493689	-0.073161609	0.90540674	0.14678432	-0.08210926	1.509831	0.050127873	-0.11556103	0.81673738	0.14791321	-0.05447724	1.5091873	0.45786026	-0.19016228	1.1259003	0.43905552	0.051184865	1.5201019	0.44326973	-0.069942751	1.1656724	0.43029722	-0.067909465	1.3742475	0.82462729	-0.25257581	1.2275106	0.83175404	0.10981746	1.4022593	0.92801887	-0.16393949	1.3367786	0.91720748	0.072577433	1.1745421	0.93420108	-0.10854675	1.3196362	1.3967343	-0.20897989	1.289972	1.3950637	0.10445305	1.230785	1.4226312	-0.063683559	1.1378915	1.1129902	-0.28485925	1.2489067	1.0357076	0.16662394	1.1882722	0.8889683	-0.37072541	1.4795426	0.93871464	0.18639065
437	1.744	1.7090244	0.04285326	-0.094592899	0.96373838	0.037770454	-0.054880062	1.5745867	0.074798206	-0.15254672	0.86709379	0.1350163	-0.0050149591	1.5767783	0.10334032	-0.071765214	0.90922803	0.14799172	-0.081022621	1.509474	0.048111576	-0.11483881	0.82068216	0.15105212	-0.054028663	1.5157808	0.45721821	-0.18888838	1.1322994	0.43811001	0.051776665	1.5262486	0.44261067	-0.068822251	1.1725707	0.42872931	-0.066956946	1.3804017	0.82379867	-0.25234949	1.2325738	0.83137801	0.10997831	1.4083663	0.92763507	-0.16397175	1.3435731	0.9160128	0.072379234	1.180541	0.93335531	-0.10776259	1.3251456	1.3956548	-0.20974441	1.2962259	1.3941229	0.10388154	1.2362927	1.42158	-0.06436271	1.1443127	1.1112599	-0.2851447	1.2555812	1.0343724	0.16545822	1.1948111	0.88739529	-0.37138539	1.4856659	0.93780905	0.18443658
438	1.748	1.7093752	0.042243915	-0.09389291	0.96449235	0.037754368	-0.054806529	1.5745704	0.073546413	-0.15146716	0.87035071	0.13727576	-0.0042648359	1.5763688	0.10173919	-0.070545977	0.91333692	0.14916846	-0.079888975	1.5093036	0.046200732	-0.11444284	0.82494014	0.15423896	-0.053590357	1.522297	0.45659908	-0.18758484	1.138895	0.43713364	0.052403849	1.5321434	0.4419147	-0.06763981	1.1797057	0.42706297	-0.065916359	1.3866568	0.82300425	-0.25209501	1.237633	0.8310519	0.11014724	1.4144846	0.92722857	-0.16403867	1.3506861	0.91479576	0.072133116	1.186668	0.93262337	-0.10696893	1.3306606	1.3945767	-0.21050793	1.3030213	1.3930473	0.10339169	1.2417933	1.4205514	-0.065060243	1.1507738	1.109524	-0.28544318	1.2624099	1.0330589	0.164366	1.2014319	0.88582271	-0.37209418	1.4917268	0.93686588	0.18252835
